<svg xmlns="http://www.w3.org/2000/svg" width="250" height="250" fill="none"><path fill="url(#a)" d="M127.177 237.945c-31.458-8.449-57.358-27.9-58.64-61.948-1.282-34.047 25.656-62.629 65.654-59.025v-11.337c.016-5.824 7.193-7.94 11.592-4.231l42.11 34.295c3.114 2.632 3.107 7.457-.028 10.232l-42.082 34.907c-4.421 3.931-11.607.984-11.592-4.841v-11.569c-4.214-.655-7.424-.837-9.694-.655-36.43 2.914-33.36 64.459 29.562 61.263 27.034-1.375 71.032-31.406 72.833-78.024 0-70.268-87.295-93.122-65.334-141.292 2.21-4.848-6.687-7.035-12.286-4.905-22.507 6.2-47.336 19.82-61.462 60.259-1.808 5.175-4.081 17.397-6.023 22.485C79.99 88.665 77.4 100.1 70.23 99.493c-9.396-.794-6.122-16.14-4.069-22.75 1.73-5.568-5.982-10.273-13.048-2.995-11.996 12.356-23.989 28.879-28.621 54.665-1.82 10.118-1.92 24.43.146 36.433 8.965 52.294 54.493 85.67 98.792 85.148 10.956-.13 11.254-10.033 3.747-12.049"/><defs><linearGradient id="a" x1="125" x2="125" y1="-3.432" y2="252.061" gradientUnits="userSpaceOnUse"><stop stop-color="#d64fc0"/><stop offset=".466" stop-color="#ff1878"/><stop offset=".611" stop-color="#ff1878"/><stop offset=".981" stop-color="#ff6c0b"/></linearGradient></defs></svg>