<svg viewBox="16 16 141 173" fill="none" xmlns="http://www.w3.org/2000/svg">
  <path
    d="M88.007 180.642c-21.767-5.846-39.688-19.304-40.574-42.862-.887-23.558 17.751-43.334 45.426-40.84v-7.844c.011-4.03 4.977-5.495 8.021-2.928l29.136 23.729c2.155 1.821 2.15 5.16-.019 7.08l-29.117 24.152c-3.059 2.72-8.031.681-8.02-3.349v-8.005c-2.916-.453-5.137-.579-6.708-.453-25.207 2.016-23.083 44.6 20.454 42.388 18.705-.951 49.148-21.73 50.394-53.985 0-48.62-60.4-64.433-45.205-97.762 1.529-3.354-4.627-4.867-8.501-3.393-15.573 4.29-32.752 13.714-42.526 41.693-1.251 3.581-2.824 12.038-4.168 15.558-1.242 3.533-3.034 11.445-7.996 11.025-6.501-.55-4.236-11.168-2.815-15.74 1.197-3.854-4.14-7.109-9.028-2.073-8.3 8.549-16.598 19.982-19.804 37.823-1.259 7.001-1.327 16.903.101 25.208 6.204 36.183 37.705 59.276 68.356 58.915 7.58-.09 7.787-6.942 2.593-8.337Z"
    fill="url(#a)"
  />
  <defs>
    <linearGradient
      id="a"
      x1="86.5"
      y1="13.631"
      x2="86.5"
      y2="190.409"
      gradientUnits="userSpaceOnUse"
    >
      <stop stop-color="#D64FC0" />
      <stop offset=".466" stop-color="#FF1878" />
      <stop offset=".611" stop-color="#FF1878" />
      <stop offset=".981" stop-color="#FF6C0B" />
    </linearGradient>
  </defs>
</svg>
